<svg width="24" height="24" viewBox="0 0 24 24" fill="none" xmlns="http://www.w3.org/2000/svg">
<path d="M24 11H13V0C15.8412 0.228368 18.5083 1.46063 20.5239 3.47614C22.5394 5.49166 23.7716 8.1588 24 11Z" fill="#C6C6C6"/>
<path d="M24 13C23.801 15.2756 22.9566 17.4471 21.566 19.2594C20.1754 21.0716 18.2965 22.4493 16.15 23.2306C14.0035 24.0119 11.6786 24.1643 9.44844 23.6699C7.2183 23.1755 5.1756 22.0549 3.56038 20.4396C1.94515 18.8244 0.82449 16.7817 0.330092 14.5516C-0.164306 12.3214 -0.011906 9.99652 0.769384 7.85001C1.55067 5.7035 2.92839 3.82457 4.74065 2.43401C6.55292 1.04346 8.72442 0.199045 11 0V12C11 12.2652 11.1054 12.5196 11.2929 12.7071C11.4804 12.8946 11.7348 13 12 13H24Z" fill="#C6C6C6"/>
</svg>
