<svg width="32" height="32" viewBox="0 0 32 32" fill="none" xmlns="http://www.w3.org/2000/svg">
<path d="M27.67 13.56L25.67 11.74L18 4.77998C17.45 4.28803 16.738 4.01605 16 4.01605C15.2621 4.01605 14.55 4.28803 14 4.77998L6.35002 11.78L4.35002 13.6C4.21534 13.7366 4.12282 13.9091 4.08349 14.0969C4.04416 14.2847 4.05968 14.4799 4.1282 14.6591C4.19673 14.8383 4.31535 14.994 4.46994 15.1076C4.62452 15.2213 4.80853 15.288 5.00002 15.3C5.25331 15.2885 5.49279 15.1813 5.67002 15L6.00002 14.7V25C6.00002 25.7956 6.31609 26.5587 6.8787 27.1213C7.44131 27.6839 8.20437 28 9.00002 28H23C23.7957 28 24.5587 27.6839 25.1213 27.1213C25.6839 26.5587 26 25.7956 26 25V14.74L26.33 15.04C26.5134 15.2067 26.7522 15.2993 27 15.3C27.2016 15.2995 27.3984 15.238 27.5645 15.1237C27.7305 15.0093 27.8582 14.8475 27.9306 14.6593C28.0031 14.4712 28.017 14.2655 27.9704 14.0693C27.9239 13.8731 27.8192 13.6956 27.67 13.56Z" fill="#7F3DFF"/>
</svg>
