<svg width="32" height="32" viewBox="0 0 32 32" fill="none" xmlns="http://www.w3.org/2000/svg">
<path d="M20.1301 17.93V18.93C20.1301 19.5866 20.0007 20.2368 19.7495 20.8434C19.4982 21.4501 19.1299 22.0013 18.6656 22.4656C18.2013 22.9299 17.6501 23.2982 17.0435 23.5494C16.4369 23.8007 15.7867 23.93 15.1301 23.93H11.8701C11.8546 24.4769 11.69 25.0092 11.3939 25.4692C11.0977 25.9292 10.6815 26.2995 10.1901 26.54C9.78024 26.7448 9.32822 26.851 8.87007 26.85C8.19234 26.8541 7.53322 26.6285 7.00007 26.21L3.29007 23.3C2.92874 23.0196 2.63631 22.6603 2.43514 22.2495C2.23398 21.8387 2.12939 21.3874 2.12939 20.93C2.12939 20.4727 2.23398 20.0213 2.43514 19.6106C2.63631 19.1998 2.92874 18.8405 3.29007 18.56L7.00007 15.65C7.44707 15.2933 7.98673 15.0717 8.55545 15.0115C9.12417 14.9513 9.69826 15.0548 10.2101 15.31C10.8916 15.636 11.4165 16.2184 11.6701 16.93H19.1001C19.2339 16.926 19.3672 16.9489 19.492 16.9974C19.6168 17.0458 19.7306 17.1188 19.8267 17.2121C19.9227 17.3054 19.9991 17.417 20.0512 17.5403C20.1033 17.6636 20.1301 17.7961 20.1301 17.93Z" fill="#C6C6C6"/>
<path d="M29.8701 11.07C29.8702 11.5273 29.7657 11.9786 29.5647 12.3894C29.3636 12.8002 29.0713 13.1595 28.7101 13.44L25.0001 16.35C24.4595 16.7701 23.7947 16.9987 23.1101 17C22.652 17.0009 22.2 16.8948 21.7901 16.69C21.1086 16.364 20.5837 15.7817 20.3301 15.07H12.8701C12.6049 15.07 12.3505 14.9647 12.163 14.7771C11.9755 14.5896 11.8701 14.3352 11.8701 14.07V13.07C11.8701 11.7439 12.3969 10.4722 13.3346 9.53448C14.2723 8.5968 15.544 8.07001 16.8701 8.07001H20.1301C20.1423 7.51096 20.3105 6.96644 20.6157 6.4979C20.9209 6.02935 21.351 5.65543 21.8574 5.41834C22.3638 5.18124 22.9264 5.0904 23.4817 5.15608C24.0371 5.22175 24.563 5.44132 25.0001 5.79001L28.7101 8.70001C29.0713 8.98051 29.3636 9.33987 29.5647 9.75063C29.7657 10.1614 29.8702 10.6127 29.8701 11.07Z" fill="#C6C6C6"/>
</svg>
