<svg width="32" height="32" viewBox="0 0 32 32" fill="none" xmlns="http://www.w3.org/2000/svg">
<path d="M5.37491 15.5L6.23808 14.6448L11.6479 9.28499L5.37491 15.5ZM5.37491 15.5H6.58998M5.37491 15.5H6.58998M6.58998 15.5H27C27.1326 15.5 27.2598 15.5527 27.3535 15.6464C27.4473 15.7402 27.5 15.8674 27.5 16C27.5 16.1326 27.4473 16.2598 27.3535 16.3535C27.2598 16.4473 27.1326 16.5 27 16.5H6.58998H5.38288L6.23643 17.3535L11.5964 22.7135L11.5979 22.715C11.6447 22.7615 11.6819 22.8168 11.7073 22.8777C11.7327 22.9386 11.7458 23.004 11.7458 23.07C11.7458 23.136 11.7327 23.2014 11.7073 23.2623C11.6819 23.3232 11.6447 23.3785 11.5979 23.425L11.5979 23.425C11.5512 23.4713 11.4957 23.508 11.4348 23.5329C11.3739 23.5578 11.3087 23.5704 11.2429 23.57L11.2421 23.57C11.1112 23.5694 10.9858 23.5176 10.8927 23.4256C10.8925 23.4254 10.8923 23.4252 10.8921 23.425L5.23376 17.7667C5.2337 17.7666 5.23364 17.7665 5.23358 17.7665C4.76552 17.2977 4.50262 16.6624 4.50262 16C4.50262 15.3379 4.76527 14.7028 5.23291 14.2342C5.23319 14.2339 5.23348 14.2336 5.23376 14.2333L10.942 8.5751L10.9425 8.5746C11.0362 8.48147 11.1629 8.4292 11.295 8.4292C11.4271 8.4292 11.5538 8.48147 11.6475 8.5746L11.6479 8.57499M6.58998 15.5L11.6479 8.57499M11.6479 8.57499C11.6947 8.62147 11.7319 8.67677 11.7573 8.7377C11.7827 8.79863 11.7958 8.86399 11.7958 8.92999C11.7958 8.996 11.7827 9.06135 11.7573 9.12228C11.732 9.18313 11.6948 9.23836 11.6481 9.2848L11.6479 8.57499Z" fill="#7F3DFF" stroke="#212325"/>
</svg>
