<svg width="24" height="18" viewBox="0 0 24 18" fill="none" xmlns="http://www.w3.org/2000/svg">
<path d="M12 1.5C9.7892 1.50203 7.62193 2.11475 5.73733 3.27057C3.85273 4.42639 2.32406 6.08036 1.31999 8.05C1.16748 8.34344 1.08786 8.66929 1.08786 9C1.08786 9.33071 1.16748 9.65656 1.31999 9.95C2.32701 11.9156 3.85695 13.5652 5.74133 14.7171C7.62571 15.869 9.79143 16.4785 12 16.4785C14.2086 16.4785 16.3743 15.869 18.2587 14.7171C20.143 13.5652 21.673 11.9156 22.68 9.95C22.8325 9.65656 22.9121 9.33071 22.9121 9C22.9121 8.66929 22.8325 8.34344 22.68 8.05C21.6759 6.08036 20.1473 4.42639 18.2627 3.27057C16.3781 2.11475 14.2108 1.50203 12 1.5V1.5Z" stroke="#91919F" stroke-width="2" stroke-linecap="round" stroke-linejoin="round"/>
<path d="M12 12.5C13.933 12.5 15.5 10.933 15.5 9C15.5 7.067 13.933 5.5 12 5.5C10.067 5.5 8.5 7.067 8.5 9C8.5 10.933 10.067 12.5 12 12.5Z" stroke="#91919F" stroke-width="2" stroke-linecap="round" stroke-linejoin="round"/>
</svg>
